<?xml version="1.0" encoding="utf-8"?>
<!-- Generator: Adobe Illustrator 16.0.4, SVG Export Plug-In . SVG Version: 6.00 Build 0)  -->
<!DOCTYPE svg PUBLIC "-//W3C//DTD SVG 1.1//EN" "http://www.w3.org/Graphics/SVG/1.1/DTD/svg11.dtd">
<svg version="1.1" id="Layer_1" xmlns="http://www.w3.org/2000/svg" xmlns:xlink="http://www.w3.org/1999/xlink" x="0px" y="0px"
	 width="100px" height="50px" viewBox="0 0 100 50" enable-background="new 0 0 100 50" xml:space="preserve">
<path fill="#FFFFFF" d="M87.588,23.252l-2.447,2.294l-5.555,8.276c-0.394,0.577-2.227,3.258-5.755,3.258
	c-0.345,0-1.919-0.043-2.147-0.077v-4.139c0,0,0.652,0.072,1.418,0.072c1.301,0,2.146-0.915,2.41-1.302l4.986-7.237l1.039-1.117
	l-0.998-1.033l-8.855-11.23h5.84l7.572,10.119l2.492,2.297"/>
<path fill="#FFFFFF" d="M12.684,23.435l2.492-2.297l7.572-10.119h5.84l-8.855,11.23l-0.998,1.033l1.039,1.117l4.986,7.237
	c0.264,0.387,1.109,1.302,2.41,1.302c0.766,0,1.418-0.072,1.418-0.072v4.139c-0.229,0.034-1.803,0.077-2.147,0.077
	c-3.528,0-5.361-2.681-5.755-3.258l-5.555-8.276l-2.447-2.294"/>
</svg>
