<?xml version="1.0" encoding="utf-8"?>
<!-- Generator: Adobe Illustrator 22.0.1, SVG Export Plug-In . SVG Version: 6.00 Build 0)  -->
<svg version="1.1" id="Layer_1" xmlns="http://www.w3.org/2000/svg" xmlns:xlink="http://www.w3.org/1999/xlink" x="0px" y="0px"
	 viewBox="0 0 621.5 42.3" style="enable-background:new 0 0 621.5 42.3;" xml:space="preserve">
<style type="text/css">
	.Arched_x0020_Green{fill:url(#SVGID_1_);stroke:#FFFFFF;stroke-width:0.25;stroke-miterlimit:1;}
	.st0{fill:#B3CA2D;}
	.st1{fill:#ADAFB2;}
</style>
<linearGradient id="SVGID_1_" gradientUnits="userSpaceOnUse" x1="-87.6401" y1="355.9048" x2="-86.933" y2="355.1977">
	<stop  offset="0" style="stop-color:#20AC4B"/>
	<stop  offset="0.9831" style="stop-color:#19361A"/>
</linearGradient>
<g>
	<g>
		<g>
			<path class="st0" d="M0,1.3l0.4-0.4l6.7-0.8l0.4,0.4v16.3h1.8l0.7-0.4L21.5,1.2l0.6-0.4l8.7-0.8l0.4,0.4l-14,17.8l-1.6,1.6
				l1.6,1.8l7.9,11.5c0.4,0.6,1.8,2.1,3.8,2.1c1.2,0,1.9-0.2,1.9-0.2l0.4,0.4l-1,5.8l-0.4,0.4c-0.4,0.1-1.6,0.1-2.1,0.1
				c-5.6,0-8.5-4.2-9.1-5.2L9.9,23.5l-0.6-0.4H7.5v18l-0.4,0.4H0.4L0,41.1V1.3z"/>
			<path class="st0" d="M42.1,1.3l0.4-0.4l6.7-0.8l0.4,0.4v40.6l-0.4,0.4h-6.7l-0.4-0.4V1.3z"/>
			<path class="st0" d="M64.8,1.3l0.4-0.4l6.1-0.7l0.5,0.2L89,24.9l2.3,3.9V1.3l0.4-0.4l6.7-0.8l0.4,0.4v40.6l-0.4,0.4h-6.1
				l-0.5-0.4L74.5,16.5l-2.1-3.6v28.3l-0.4,0.4h-6.7l-0.4-0.4V1.3z"/>
			<path class="st0" d="M114,1l0.4-0.4h14.8c10.4,0,17,5.3,17,15.2v10.7c0,10-6.6,15-17,15h-14.8l-0.4-0.4V1z M129.2,34.9
				c5.5,0,9.4-2.7,9.4-8.9v-9.8c0-6.1-3.9-9-9.4-9h-7.7v27.6H129.2z"/>
			<path class="st0" d="M160,1l0.4-0.4h23.2L184,1v5.8l-0.4,0.4h-16.1v9.5h14.2l0.3,0.5l-1.5,5.9l-0.5,0.3h-12.4v11.5h16.3l0.4,0.5
				l-0.8,5.8l-0.5,0.4h-22.4l-0.4-0.4V1z"/>
			<path class="st0" d="M197.5,1l0.4-0.4h11.9c7.5,0,15.2,3.2,15.2,12.4c0,10.6-10.1,11.8-10.1,11.8l1.7,2.1l4.3,6.2
				c0.5,0.7,1.8,2.1,3.8,2.1c1.2,0,1.9-0.2,1.9-0.2l0.4,0.4l-1,5.8l-0.4,0.4c-0.4,0.1-1.6,0.1-2.1,0.1c-5.6,0-8.6-4.2-9.2-5.2
				l-7-10.9l-0.6-0.4H205v15.8l-0.4,0.4h-6.7l-0.4-0.4V1z M209.9,19c4.2,0,7.5-1.6,7.5-6c0-4.4-3.3-6-7.5-6H205v12H209.9z"/>
		</g>
	</g>
	<g>
		<path class="st1" d="M247,0.9l0.3-0.3h20.4l0.3,0.3v4.2l-0.3,0.3h-15.6v12.7h14.7l0.2,0.3l-1.1,4.2l-0.4,0.3h-13.5v18.2l-0.3,0.3
			h-4.5l-0.3-0.3V0.9z"/>
		<path class="st1" d="M278,15c0-9.8,6.4-15,15.9-15c9.5,0,15.9,5.2,15.9,15v12.4c0,9.8-6.4,14.9-15.9,14.9
			c-9.5,0-15.9-5.1-15.9-14.9V15z M293.9,37.4c6.2,0,10.7-3.3,10.7-10.6V15.5c0-7-4.5-10.6-10.7-10.6c-6.2,0-10.7,3.6-10.7,10.6
			v11.4C283.2,34.1,287.8,37.4,293.9,37.4z"/>
		<path class="st1" d="M322.4,1.2l0.3-0.4l4.5-0.6l0.3,0.2v26.4c0,7.2,4.7,10.6,10.7,10.6c6.4,0,10.7-3.3,10.7-10.6V1.2l0.3-0.4
			l4.5-0.6l0.3,0.2v26.9c0,9.8-6,14.9-15.8,14.9c-9.6,0-15.8-5.1-15.8-14.9V1.2z"/>
		<path class="st1" d="M368,1.2l0.3-0.4l4.5-0.6l0.4,0.2l19.6,29.6l1.6,2.9V1.2l0.3-0.4l4.5-0.6l0.3,0.2v40.7l-0.3,0.3H395l-0.5-0.3
			l-19.8-29.8l-1.6-2.9v32.7l-0.3,0.3h-4.5l-0.3-0.3V1.2z"/>
		<path class="st1" d="M413.9,0.9l0.3-0.3h13.6c9.5,0,15.9,5.2,15.9,15v11c0,9.8-6.4,14.9-15.9,14.9h-13.6l-0.3-0.3V0.9z
			 M427.8,36.7c6.2,0,10.7-3.3,10.7-10.6V16.1c0-7-4.5-10.6-10.7-10.6H419v31.2H427.8z"/>
		<path class="st1" d="M466,1.2l0.4-0.3l5.1-0.7l0.4,0.2l14.4,40.7l-0.2,0.3h-4.9l-0.4-0.3l-3.3-9.8h-16.9l-3.3,9.8l-0.3,0.3H452
			l-0.2-0.3L466,1.2z M475.9,26.9l-6.3-18.7L469,5.6l-0.6,2.6l-6.3,18.7H475.9z"/>
		<path class="st1" d="M500.7,5.5h-11.3l-0.3-0.3V0.9l0.3-0.3h28.4l0.2,0.3L517,5.2l-0.4,0.3h-10.9v35.8l-0.3,0.3H501l-0.3-0.3V5.5z
			"/>
		<path class="st1" d="M526.9,1.2l0.3-0.4l4.5-0.6l0.3,0.2v40.7l-0.3,0.3h-4.5l-0.3-0.3V1.2z"/>
		<path class="st1" d="M545.1,15c0-9.8,6.4-15,15.9-15c9.5,0,15.9,5.2,15.9,15v12.4c0,9.8-6.4,14.9-15.9,14.9
			c-9.5,0-15.9-5.1-15.9-14.9V15z M561,37.4c6.2,0,10.7-3.3,10.7-10.6V15.5c0-7-4.5-10.6-10.7-10.6c-6.2,0-10.7,3.6-10.7,10.6v11.4
			C550.3,34.1,554.8,37.4,561,37.4z"/>
		<path class="st1" d="M589.9,1.2l0.3-0.4l4.5-0.6l0.4,0.2l19.6,29.6l1.6,2.9V1.2l0.3-0.4l4.5-0.6l0.3,0.2v40.7l-0.3,0.3h-4.3
			l-0.5-0.3l-19.8-29.8L595,8.5v32.7l-0.3,0.3h-4.5l-0.3-0.3V1.2z"/>
	</g>
</g>
</svg>
